<?xml version="1.0" standalone="no"?>
<!DOCTYPE svg PUBLIC "-//W3C//DTD SVG 20010904//EN"
 "http://www.w3.org/TR/2001/REC-SVG-20010904/DTD/svg10.dtd">
<svg version="1.0" xmlns="http://www.w3.org/2000/svg"
 width="2000.000000pt" height="499.000000pt" viewBox="0 0 2000.000000 499.000000"
 preserveAspectRatio="xMidYMid meet">

<g transform="translate(0.000000,499.000000) scale(0.100000,-0.100000)"
fill="#000000" stroke="none">
<path d="M2085 4933 c-198 -122 -1962 -1257 -1983 -1276 -13 -12 -34 -40 -45
-62 l-22 -40 -2 -1130 c-2 -885 0 -1135 10 -1155 7 -14 34 -35 63 -49 l52 -24
-1 -71 c-1 -39 3 -97 8 -129 l10 -58 918 -461 c981 -493 970 -488 1049 -455
64 27 1919 1199 1934 1222 16 24 28 93 39 212 5 64 4 74 -13 89 -11 9 -439
227 -951 485 l-931 468 40 26 c22 14 52 44 67 67 l28 42 0 1145 0 1146 -49 24
c-26 13 -69 26 -95 28 -41 4 -54 0 -126 -44z m158 13 c16 -4 27 -11 25 -16 -2
-5 -460 -302 -1018 -660 -573 -368 -1029 -666 -1046 -686 -17 -19 -37 -53 -43
-77 -9 -31 -11 -336 -9 -1160 2 -614 2 -1117 2 -1117 -17 0 -76 35 -84 49 -14
28 -14 2222 1 2274 6 22 25 54 42 72 26 27 1962 1277 2047 1322 14 7 32 11 40
9 8 -2 28 -7 43 -10z m85 -1155 c2 -1072 1 -1114 -17 -1156 -10 -23 -34 -54
-52 -67 -60 -45 -2049 -1318 -2059 -1318 -7 0 -10 379 -10 1125 0 1207 -2
1153 49 1199 35 32 2065 1334 2076 1332 7 -2 11 -384 13 -1115z m823 -1798
c511 -257 928 -472 926 -477 -2 -6 -440 -285 -973 -621 -916 -577 -971 -610
-1014 -610 -39 1 -166 62 -960 459 -503 252 -917 461 -920 463 -3 3 0 8 7 10
13 5 270 169 1328 850 488 314 617 392 644 393 25 0 270 -119 962 -467z m919
-649 c-7 -40 -15 -76 -19 -81 -3 -6 -437 -281 -964 -613 -943 -593 -959 -603
-1010 -603 -49 -1 -106 26 -963 456 l-911 457 -8 52 c-8 58 -9 147 -1 155 2 3
419 -203 925 -456 1030 -516 964 -489 1066 -432 49 28 1730 1083 1840 1155
l50 33 3 -26 c2 -14 -2 -58 -8 -97z"/>
<path d="M2143 4614 c-6 -3 -413 -263 -905 -578 -872 -560 -894 -575 -925
-627 l-33 -53 0 -886 c0 -993 -4 -936 69 -928 27 3 256 146 911 566 481 309
889 575 906 590 17 16 39 47 50 68 18 38 19 69 19 927 l0 889 -24 19 c-23 18
-44 22 -68 13z m51 -50 c3 -9 6 -403 6 -877 0 -817 -1 -864 -19 -902 -10 -22
-29 -49 -42 -61 -51 -45 -1765 -1138 -1792 -1142 -21 -3 -27 0 -27 14 0 13 8
19 24 20 13 1 419 255 902 565 l878 564 28 54 28 53 0 842 c0 745 -2 844 -16
864 -14 20 -14 22 4 22 11 0 23 -7 26 -16z m-45 -18 c8 -10 11 -239 9 -863
l-3 -849 -26 -40 c-22 -33 -171 -132 -885 -591 -473 -302 -869 -556 -882 -562
-54 -28 -52 -58 -52 825 0 559 3 829 11 865 7 34 22 63 43 85 26 28 1749 1143
1767 1144 4 0 12 -6 18 -14z"/>
<path d="M2276 2247 c-55 -31 -81 -68 -67 -95 10 -19 9 -20 -20 -12 -40 12
-85 3 -131 -26 -43 -27 -62 -57 -53 -83 5 -17 1 -18 -39 -14 -33 4 -55 0 -91
-18 -56 -28 -80 -59 -71 -93 6 -23 4 -24 -23 -16 -80 23 -200 -55 -178 -114 5
-12 -4 -14 -46 -10 -42 4 -60 0 -91 -18 -55 -32 -81 -70 -67 -96 10 -19 8 -19
-25 -12 -80 18 -197 -53 -180 -108 6 -18 3 -19 -38 -15 -80 9 -176 -56 -163
-109 6 -22 4 -23 -52 -20 -52 3 -61 1 -102 -30 -35 -28 -44 -40 -44 -65 l0
-31 -50 4 c-57 6 -113 -20 -148 -68 -19 -25 -19 -28 -3 -52 46 -72 175 -84
250 -25 27 22 35 66 15 86 -8 8 7 9 53 6 74 -6 128 13 156 55 14 22 15 27 0
52 l-15 27 46 -10 c59 -11 119 4 155 39 28 28 32 45 17 72 -8 15 -1 17 64 17
59 0 79 4 101 21 42 31 50 49 38 83 l-11 29 34 -10 c96 -26 216 47 178 108
-14 21 -13 22 49 17 108 -9 191 52 152 112 -9 14 -15 25 -14 25 2 0 19 -5 38
-10 53 -15 117 -2 156 32 37 33 42 53 19 85 -15 22 -15 22 15 11 43 -14 126
-5 157 19 41 30 49 48 37 81 l-11 29 43 -9 c72 -16 164 22 177 72 6 24 -32 74
-74 95 -40 21 -98 18 -143 -8z m129 -21 c10 -7 16 -20 12 -28 -11 -31 -104
-31 -129 -1 -28 34 75 60 117 29z m-125 -58 c39 -28 112 -28 151 1 32 24 45
14 24 -17 -21 -29 -78 -45 -131 -37 -48 7 -102 45 -90 63 10 16 12 15 46 -10z
m-91 -59 c56 -20 28 -59 -41 -59 -65 0 -87 39 -34 60 29 12 38 12 75 -1z m-39
-84 c48 0 63 4 84 24 l26 24 0 -21 c0 -51 -110 -79 -184 -48 -39 16 -50 31
-42 53 6 14 10 13 32 -8 21 -20 36 -24 84 -24z m-145 -49 c41 -30 -30 -66 -91
-46 -37 13 -44 33 -16 49 25 15 85 13 107 -3z m-99 -75 c45 -13 97 -4 124 21
24 23 40 16 24 -10 -19 -31 -75 -54 -122 -48 -56 7 -102 32 -102 55 0 28 12
33 27 11 7 -10 29 -24 49 -29z m-96 -58 c13 -13 13 -16 -4 -29 -42 -31 -154
-3 -126 31 23 27 101 26 130 -2z m-153 -37 c13 -21 49 -36 88 -36 40 0 95 24
95 42 0 8 3 9 10 2 6 -6 8 -18 4 -28 -25 -66 -224 -57 -224 10 0 26 14 32 27
10z m-66 -76 c27 -15 24 -39 -8 -51 -34 -13 -86 -4 -104 17 -11 14 -10 18 6
30 22 16 78 18 106 4z m-121 -62 c40 -29 110 -29 150 0 33 25 47 16 25 -16
-21 -29 -78 -45 -131 -37 -48 7 -102 45 -90 63 10 16 12 15 46 -10z m-97 -59
c63 -17 38 -59 -35 -59 -65 0 -87 39 -34 60 28 11 25 11 69 -1z m-33 -84 c48
0 63 4 84 24 25 23 26 24 26 4 0 -31 -35 -55 -89 -61 -80 -7 -152 26 -137 64
6 15 10 14 32 -7 21 -20 36 -24 84 -24z m-145 -49 c41 -30 -30 -66 -91 -46
-37 13 -44 33 -16 49 25 15 85 13 107 -3z m-99 -75 c45 -13 97 -4 124 21 23
21 36 18 27 -6 -9 -23 -52 -47 -95 -53 -51 -7 -132 27 -132 55 0 29 12 34 27
12 7 -10 29 -24 49 -29z m-96 -58 c13 -13 13 -16 -4 -29 -27 -19 -100 -18
-120 2 -22 21 -21 23 17 39 36 15 84 10 107 -12z m-160 -33 c0 -16 57 -40 95
-40 40 0 95 24 95 42 0 8 3 9 10 2 30 -30 -33 -74 -105 -74 -67 0 -115 23
-115 54 0 15 5 26 10 26 6 0 10 -4 10 -10z m-55 -84 c26 -19 13 -44 -29 -51
-36 -7 -86 10 -94 33 -9 27 90 43 123 18z m-128 -58 c33 -31 110 -31 152 -1
34 25 48 17 26 -15 -21 -29 -78 -45 -131 -37 -48 7 -102 45 -90 63 10 17 16
15 43 -10z"/>
<path d="M2532 2139 c-52 -26 -85 -66 -78 -94 5 -18 1 -20 -44 -17 -81 6 -170
-57 -157 -109 5 -17 1 -18 -34 -13 -30 5 -51 1 -94 -21 -59 -29 -79 -54 -73
-90 5 -21 2 -23 -28 -18 -56 9 -102 -5 -144 -46 -36 -34 -39 -41 -31 -64 10
-24 9 -25 -25 -14 -46 14 -103 -4 -150 -48 -28 -26 -35 -40 -31 -57 6 -22 4
-23 -43 -20 -81 6 -170 -57 -157 -110 5 -18 2 -19 -34 -13 -32 6 -51 2 -95
-20 -58 -28 -78 -54 -72 -89 4 -20 0 -21 -57 -21 -52 0 -67 -4 -98 -28 -48
-36 -61 -61 -47 -87 10 -18 9 -19 -17 -9 -39 14 -96 2 -142 -31 -68 -49 -63
-96 12 -131 71 -32 156 -22 205 23 24 24 29 67 10 87 -11 11 -8 12 12 5 44
-13 118 -7 152 13 47 27 61 59 42 95 -14 27 -14 28 11 18 42 -16 95 -12 143
11 54 27 71 58 49 92 l-15 23 59 -4 c73 -5 99 1 138 34 35 29 39 58 14 86 -16
18 -16 19 11 9 60 -23 140 -9 184 31 23 22 29 67 12 84 -6 6 14 8 58 6 109 -5
179 47 146 110 -14 27 -14 28 11 18 60 -23 142 -4 184 41 25 27 27 46 5 70
-15 16 -12 17 44 12 74 -7 102 0 141 33 34 28 39 58 16 84 -14 15 -11 16 34 6
36 -7 61 -6 89 2 101 30 121 93 46 145 -55 39 -107 44 -162 16z m112 -19 c48
-18 21 -60 -38 -60 -33 0 -76 20 -76 35 0 28 69 43 114 25z m-134 -51 c0 -5
17 -17 37 -25 45 -19 96 -13 135 16 l28 21 0 -21 c0 -28 -56 -60 -105 -60 -71
1 -145 46 -118 73 10 10 23 8 23 -4z m-55 -83 c31 -23 3 -46 -55 -46 -55 0
-81 20 -60 45 16 19 90 20 115 1z m-118 -64 c35 -19 107 -15 136 8 30 24 37
25 37 7 0 -20 -32 -46 -70 -57 -69 -20 -172 24 -155 67 6 16 8 16 18 2 7 -9
22 -21 34 -27z m-80 -64 c13 -11 12 -14 -7 -30 -37 -30 -120 -18 -120 18 0 32
92 42 127 12z m-142 -48 c34 -38 127 -38 166 1 19 19 33 11 23 -14 -25 -66
-224 -54 -224 13 0 25 12 25 35 0z m-71 -66 c21 -8 21 -40 0 -48 -29 -11 -90
-6 -110 9 -19 15 -19 15 0 30 20 15 81 20 110 9z m-51 -84 c39 0 61 6 80 20
31 25 46 9 18 -19 -43 -43 -136 -46 -196 -7 -28 18 -30 27 -14 43 7 7 17 4 34
-13 19 -19 35 -24 78 -24z m-158 -40 c34 -13 30 -41 -7 -54 -35 -12 -102 3
-106 25 -6 30 63 48 113 29z m-135 -51 c0 -14 63 -39 98 -39 16 0 46 11 66 25
34 23 36 23 36 5 0 -49 -111 -76 -184 -46 -38 16 -50 31 -42 51 6 17 26 20 26
4z m-55 -83 c30 -22 3 -46 -50 -46 -70 0 -93 18 -63 48 16 16 90 15 113 -2z
m-118 -64 c36 -20 107 -15 137 9 15 12 30 19 33 16 10 -11 -5 -35 -33 -54 -54
-35 -194 -10 -194 36 0 25 13 35 25 18 5 -7 20 -19 32 -25z m-81 -63 c20 -16
18 -24 -11 -37 -49 -22 -115 -8 -115 24 0 32 92 42 126 13z m-141 -49 c34 -38
127 -38 166 1 19 19 33 11 23 -14 -25 -66 -224 -54 -224 13 0 25 12 25 35 0z
m-60 -77 c16 -16 16 -17 -1 -30 -24 -18 -96 -17 -120 2 -19 15 -19 15 0 30 27
21 100 19 121 -2z m-62 -73 c39 0 61 6 80 20 35 28 45 7 12 -24 -14 -13 -41
-27 -60 -30 -72 -14 -173 35 -144 70 8 9 16 7 34 -12 20 -19 34 -24 78 -24z
m-158 -40 c34 -13 30 -41 -7 -54 -35 -12 -102 3 -106 25 -6 30 63 48 113 29z
m-135 -50 c0 -5 14 -17 32 -26 42 -22 111 -14 144 17 l24 22 0 -21 c0 -51
-110 -79 -184 -48 -38 16 -50 31 -42 51 6 17 26 20 26 5z"/>
<path d="M2821 2042 c-28 -4 -90 -41 -110 -66 -7 -9 -11 -27 -9 -40 4 -22 2
-23 -38 -18 -77 8 -172 -56 -162 -111 4 -21 2 -22 -48 -19 -80 6 -154 -41
-154 -97 0 -27 -1 -28 -47 -24 -37 3 -57 -1 -87 -19 -54 -32 -81 -70 -68 -95
10 -18 8 -19 -42 -15 -40 3 -62 -1 -94 -17 -47 -24 -77 -62 -69 -90 4 -16 0
-18 -38 -13 -78 8 -173 -56 -163 -111 4 -21 2 -22 -49 -19 -80 6 -153 -42
-153 -99 0 -26 -2 -27 -35 -22 -73 12 -184 -60 -171 -111 5 -20 2 -21 -47 -18
-40 2 -61 -3 -92 -20 -49 -29 -75 -70 -59 -95 22 -35 63 -56 118 -61 69 -6 96
1 135 34 35 29 39 58 13 87 -16 20 -16 20 1 14 69 -25 140 -16 191 24 27 21
35 66 15 86 -7 7 9 9 58 6 78 -5 129 15 151 61 12 23 11 31 -2 51 l-15 23 36
-10 c57 -16 120 -1 161 37 34 31 36 36 26 63 l-11 29 43 -5 c61 -6 109 5 144
34 34 29 38 58 13 87 -16 19 -16 20 -1 14 67 -24 143 -15 192 24 27 22 35 66
15 86 -8 8 7 9 53 6 53 -5 72 -2 106 16 51 26 70 63 48 96 -14 22 -14 22 33
12 62 -12 118 4 156 43 26 27 28 34 18 59 l-10 28 43 -5 c61 -6 109 5 144 34
42 36 39 65 -11 107 -39 34 -78 46 -128 39z m62 -33 c61 -17 38 -59 -33 -59
-65 0 -94 40 -42 58 35 13 31 13 75 1z m-33 -84 c41 0 63 5 77 18 24 21 33 22
33 2 0 -26 -60 -55 -115 -55 -72 0 -137 44 -108 73 3 4 17 -3 31 -15 19 -19
35 -23 82 -23z m-155 -45 c32 -12 28 -30 -9 -48 -34 -17 -94 -8 -103 15 -13
35 55 55 112 33z m-86 -80 c47 -12 94 -4 117 21 20 23 34 24 34 5 0 -21 -47
-55 -87 -62 -42 -8 -121 14 -136 37 -6 9 -7 24 -3 34 6 17 8 17 22 -3 8 -12
32 -26 53 -32z m-135 -40 c7 0 20 -6 30 -13 17 -13 17 -14 1 -30 -20 -21 -93
-23 -120 -3 -16 12 -17 16 -6 29 13 17 47 27 69 21 8 -2 19 -4 26 -4z m-124
-50 c0 -16 57 -40 95 -40 40 0 95 24 95 42 0 8 3 9 10 2 16 -16 1 -43 -31 -59
-71 -37 -212 0 -192 51 6 16 23 19 23 4z m-59 -80 c27 -15 24 -39 -8 -51 -34
-13 -86 -4 -104 17 -11 14 -10 18 6 30 22 16 78 18 106 4z m-130 -59 c40 -38
127 -34 171 6 19 17 20 17 17 -7 -6 -36 -61 -63 -119 -56 -75 8 -122 38 -104
67 8 13 12 11 35 -10z m-59 -78 c17 -21 -14 -43 -62 -43 -48 0 -79 22 -61 43
22 28 100 27 123 0z m-55 -71 c32 3 61 12 73 23 23 21 39 12 24 -13 -17 -27
-55 -42 -109 -42 -72 0 -138 44 -109 73 4 4 21 -5 37 -19 27 -23 38 -26 84
-22z m-162 -42 c32 -12 28 -30 -9 -48 -34 -17 -94 -8 -103 15 -13 35 55 55
112 33z m-91 -80 c42 -14 97 -5 125 21 12 12 22 15 26 8 9 -13 -12 -37 -49
-56 -56 -29 -176 2 -176 46 0 27 12 33 27 12 7 -11 29 -25 47 -31z m-100 -53
c17 -13 17 -14 1 -30 -21 -21 -94 -23 -121 -2 -19 15 -19 15 0 30 24 19 96 20
120 2z m-154 -37 c0 -16 57 -40 95 -40 40 0 95 24 95 42 0 8 3 9 10 2 16 -16
1 -43 -31 -59 -71 -37 -212 0 -192 51 6 16 23 19 23 4z m-55 -84 c44 -32 -24
-68 -90 -46 -19 6 -35 18 -35 26 0 30 91 45 125 20z m-142 -50 c8 -20 81 -39
117 -31 16 4 41 15 55 26 l25 20 0 -20 c0 -26 -38 -51 -90 -58 -68 -9 -155 35
-134 68 8 13 21 11 27 -5z m-52 -82 c11 -14 10 -18 -6 -30 -10 -8 -35 -14 -55
-14 -20 0 -45 6 -55 14 -31 23 -3 46 55 46 31 0 52 -5 61 -16z m-62 -74 c33 0
56 6 74 20 30 24 37 25 37 6 0 -8 -12 -24 -27 -36 -24 -19 -38 -21 -96 -18
-73 4 -116 30 -103 63 5 15 10 14 37 -9 23 -20 42 -26 78 -26z"/>
<path d="M3020 1911 c-51 -28 -73 -56 -67 -86 4 -26 3 -26 -35 -20 -31 6 -50
1 -94 -20 -58 -28 -78 -54 -72 -89 4 -20 0 -21 -57 -21 -52 0 -67 -4 -98 -28
-47 -36 -61 -61 -47 -86 9 -18 7 -19 -25 -10 -46 13 -100 -2 -148 -42 -32 -26
-38 -37 -34 -59 6 -26 6 -27 -46 -22 -46 3 -58 0 -102 -30 -45 -30 -50 -37
-49 -69 l1 -36 -33 10 c-66 20 -180 -47 -172 -101 4 -27 3 -27 -57 -27 -52 0
-67 -4 -98 -28 -47 -36 -61 -61 -47 -86 9 -18 7 -19 -25 -10 -46 13 -100 -2
-148 -42 -32 -26 -38 -37 -34 -59 6 -26 6 -27 -46 -22 -46 3 -58 0 -102 -30
-61 -41 -70 -75 -30 -112 58 -54 171 -53 235 0 34 29 37 49 15 81 -15 22 -15
22 15 11 43 -14 126 -5 157 19 41 30 49 48 37 81 l-11 29 38 -8 c77 -18 179
27 179 78 0 15 -8 35 -17 45 -16 18 -16 19 11 9 70 -27 181 3 205 55 10 22 9
31 -5 51 -15 24 -15 25 8 17 35 -11 112 -8 139 6 37 19 69 52 69 70 0 8 -7 25
-15 37 -15 22 -15 22 15 11 43 -14 126 -5 157 19 42 30 49 48 36 83 -11 29
-11 31 10 24 80 -26 197 17 197 73 0 14 -7 35 -16 44 -16 17 -15 18 17 9 110
-32 239 37 196 104 -14 21 -14 21 53 18 71 -4 109 8 144 47 26 29 14 63 -36
100 -50 37 -112 41 -168 12z m135 -25 c30 -22 3 -46 -50 -46 -70 0 -93 18 -63
48 16 16 90 15 113 -2z m-125 -61 c43 -22 112 -19 144 6 15 12 30 19 33 16 10
-11 -5 -35 -33 -54 -54 -35 -194 -10 -194 36 0 21 13 37 18 21 2 -6 17 -17 32
-25z m-73 -67 c13 -11 12 -14 -7 -30 -12 -10 -36 -18 -54 -18 -35 0 -80 26
-70 41 18 29 99 34 131 7z m-142 -48 c34 -38 127 -38 166 1 12 12 21 14 25 8
3 -6 -5 -23 -19 -37 -52 -51 -197 -34 -205 26 -4 27 9 28 33 2z m-71 -66 c24
-9 19 -42 -6 -50 -37 -11 -91 -6 -107 11 -15 15 -14 18 3 31 20 14 82 19 110
8z m-50 -84 c38 0 61 6 78 20 14 10 28 17 31 13 14 -13 -15 -42 -57 -58 -38
-15 -52 -16 -95 -5 -55 13 -85 38 -75 64 5 14 10 13 36 -9 23 -20 41 -25 82
-25z m-159 -42 c14 -6 25 -17 25 -24 0 -30 -80 -45 -121 -24 -59 32 31 78 96
48z m-45 -88 c23 0 51 9 74 25 34 23 36 23 36 5 0 -49 -111 -76 -184 -46 -38
16 -50 31 -42 51 4 12 12 10 42 -10 23 -16 51 -25 74 -25z m-145 -44 c41 -30
-26 -62 -91 -44 -59 16 -37 58 31 58 23 0 50 -6 60 -14z m-62 -76 c40 0 61 6
81 21 15 12 30 19 33 16 10 -11 -5 -35 -33 -54 -55 -36 -194 -10 -194 36 0 29
10 30 35 5 20 -19 34 -24 78 -24z m-136 -52 c13 -11 12 -14 -7 -30 -12 -10
-36 -18 -54 -18 -35 0 -80 26 -70 41 18 29 99 34 131 7z m-151 -43 c16 -39
136 -43 174 -5 11 11 22 15 25 11 10 -17 -6 -39 -40 -55 -69 -33 -185 -7 -185
41 0 26 17 31 26 8z m-65 -75 c27 -15 24 -36 -9 -48 -35 -12 -88 -4 -104 15
-27 33 64 59 113 33z m-47 -80 c39 0 61 6 80 21 25 20 26 20 26 1 0 -42 -81
-70 -153 -51 -52 13 -81 38 -71 63 5 14 10 13 36 -9 23 -20 41 -25 82 -25z
m-165 -41 c55 -19 29 -59 -39 -59 -65 0 -94 40 -42 58 36 14 44 14 81 1z m-39
-84 c48 0 63 4 84 24 l26 24 0 -21 c0 -51 -110 -79 -184 -48 -39 16 -50 31
-42 53 6 14 10 13 32 -8 21 -20 36 -24 84 -24z m-145 -49 c41 -30 -30 -66 -91
-46 -37 13 -44 33 -16 49 25 15 85 13 107 -3z m-62 -76 c40 0 61 6 81 21 30
23 46 18 30 -9 -19 -31 -75 -54 -122 -48 -56 7 -102 32 -102 55 0 29 10 30 35
5 20 -19 34 -24 78 -24z"/>
<path d="M2490 1230 c-146 -92 -265 -173 -265 -180 0 -11 470 -265 510 -276
14 -3 101 46 290 165 148 94 271 175 273 180 4 11 -503 281 -526 280 -9 0
-136 -76 -282 -169z m511 14 c120 -64 221 -119 223 -123 5 -8 -463 -306 -481
-306 -19 0 -453 229 -450 238 2 9 467 305 480 306 5 1 107 -51 228 -115z"/>
<path d="M4650 3590 l0 -30 95 0 95 0 0 -1050 0 -1050 -95 0 -95 0 0 -30 0
-30 845 0 c514 0 845 4 845 9 0 15 49 611 55 674 l6 57 -33 0 c-32 0 -35 -4
-87 -106 -123 -243 -275 -432 -399 -497 -90 -47 -166 -65 -305 -73 l-117 -7 0
1051 0 1052 170 0 170 0 0 30 0 30 -575 0 -575 0 0 -30z"/>
<path d="M13450 3590 l0 -29 93 -3 92 -3 0 -1045 0 -1045 -92 -3 -93 -3 0 -29
0 -30 600 0 600 0 0 30 0 30 -197 2 -198 3 -3 489 -2 488 122 -4 c97 -3 133
-9 170 -25 100 -45 173 -151 222 -323 21 -77 26 -85 50 -88 l26 -3 0 471 0
471 -21 -3 c-17 -2 -27 -21 -50 -93 -50 -159 -146 -272 -261 -309 -33 -10 -86
-16 -154 -16 l-104 0 0 522 0 521 128 -6 c70 -4 159 -14 197 -22 91 -19 202
-75 257 -128 82 -79 171 -233 224 -384 17 -47 22 -53 46 -53 34 0 32 -32 13
335 -8 154 -15 288 -15 298 0 16 -46 17 -825 17 l-825 0 0 -30z"/>
<path d="M7055 2926 c-262 -43 -399 -153 -420 -337 -8 -69 15 -169 50 -215 78
-103 304 -112 415 -17 67 57 83 101 77 203 -7 112 -10 120 -57 120 -22 0 -42
5 -45 11 -4 6 -9 36 -12 67 -4 49 -2 61 18 86 29 36 76 56 135 56 39 0 51 -5
79 -33 55 -55 65 -108 78 -417 6 -152 8 -284 4 -293 -6 -15 -23 -17 -136 -17
-224 0 -438 -38 -536 -95 -123 -72 -178 -217 -145 -387 24 -133 100 -215 235
-260 60 -20 90 -23 220 -23 144 0 152 1 207 28 64 31 107 77 142 151 l23 49
13 -38 c17 -51 73 -111 132 -141 83 -42 169 -56 308 -51 153 5 205 22 270 86
55 53 82 118 105 248 21 118 20 143 -5 143 -20 0 -21 -5 -35 -113 -10 -76 -33
-143 -62 -177 -21 -26 -32 -31 -61 -28 -43 4 -71 37 -83 99 -4 24 -8 225 -9
447 0 442 -6 502 -59 617 -37 81 -78 125 -149 163 -104 55 -201 73 -422 78
-130 2 -222 -1 -275 -10z m319 -1031 c-1 -215 -11 -278 -56 -345 -48 -70 -112
-78 -145 -17 -15 27 -18 60 -18 212 l0 180 30 60 c34 66 66 94 122 105 72 15
68 26 67 -195z"/>
<path d="M9345 2924 c-32 -8 -78 -25 -101 -39 -59 -34 -138 -125 -173 -198
l-30 -62 -1 143 0 142 -385 0 -385 0 0 -25 c0 -25 1 -25 90 -25 l90 0 0 -705
0 -705 -90 0 c-89 0 -90 0 -90 -25 l0 -25 450 0 450 0 0 25 c0 24 -2 25 -65
25 l-66 0 3 518 c3 504 4 519 25 583 32 94 92 182 146 213 83 49 163 27 188
-52 9 -27 14 -206 16 -649 l4 -613 -65 0 c-64 0 -66 -1 -66 -25 l0 -25 445 0
445 0 0 25 c0 25 -1 25 -84 25 l-84 0 -4 543 c-5 517 -6 546 -26 621 -48 175
-146 271 -314 311 -79 18 -244 18 -323 -1z"/>
<path d="M10884 2926 c-196 -37 -313 -95 -430 -211 -65 -65 -90 -98 -122 -166
-22 -46 -48 -111 -57 -144 -22 -78 -31 -344 -16 -444 38 -245 161 -423 356
-516 123 -58 188 -70 390 -70 203 0 259 10 381 70 127 62 230 198 279 368 18
64 19 62 -11 71 -18 5 -23 -1 -38 -51 -42 -134 -138 -264 -233 -315 -147 -80
-353 -54 -433 55 -75 102 -94 240 -87 655 5 353 14 418 70 532 39 79 89 118
162 126 113 13 175 -41 175 -152 0 -34 -4 -74 -10 -88 -8 -23 -15 -26 -59 -26
-27 0 -52 -4 -56 -10 -3 -5 -8 -38 -12 -73 -16 -177 86 -290 267 -291 97 -1
158 22 205 77 46 53 65 120 65 226 0 74 -4 95 -29 146 -47 101 -155 180 -297
220 -81 23 -362 29 -460 11z"/>
<path d="M12427 2930 c-167 -30 -315 -101 -425 -205 -129 -121 -191 -255 -212
-456 -37 -366 103 -681 362 -808 144 -71 213 -84 443 -85 163 -1 212 2 265 17
196 54 326 170 401 361 35 88 35 96 3 96 -18 0 -28 -6 -32 -22 -15 -60 -88
-183 -137 -234 -155 -158 -446 -179 -571 -42 -76 84 -111 212 -125 461 -6 98
-8 184 -5 192 5 13 69 15 452 15 l447 0 -5 123 c-14 307 -155 496 -425 568
-87 24 -349 35 -436 19z m221 -67 c57 -35 82 -168 82 -430 l0 -153 -166 0
-167 0 6 198 c5 196 15 260 49 327 41 78 126 103 196 58z"/>
<path d="M16316 2929 c-132 -33 -238 -126 -293 -258 l-23 -56 0 148 0 147
-385 0 -385 0 0 -25 c0 -25 1 -25 90 -25 l90 0 0 -705 0 -705 -90 0 c-89 0
-90 0 -90 -25 l0 -25 495 0 495 0 0 25 0 25 -111 0 -110 0 3 508 3 507 28 81
c43 129 124 238 196 266 42 16 121 11 142 -8 21 -19 25 -65 8 -113 -11 -30
-13 -31 -69 -31 -67 0 -69 -2 -77 -102 -7 -85 13 -143 66 -191 50 -45 100 -62
187 -61 89 0 152 23 198 74 51 57 67 103 73 206 7 117 -11 183 -67 247 -62 71
-133 101 -244 104 -50 1 -108 -2 -130 -8z"/>
<path d="M17427 2925 c-209 -40 -391 -153 -493 -307 -151 -226 -164 -609 -31
-878 90 -183 258 -304 487 -350 91 -19 127 -21 275 -17 185 6 245 17 355 69
119 56 227 190 280 344 11 32 20 59 20 61 0 1 -12 3 -27 3 -25 0 -31 -7 -52
-63 -69 -179 -195 -289 -365 -318 -79 -13 -178 -7 -230 15 -149 62 -225 273
-226 629 l0 107 451 0 452 0 -6 113 c-7 133 -25 206 -73 306 -67 137 -195 234
-364 276 -93 23 -352 29 -453 10z m250 -61 c54 -34 71 -118 80 -387 l6 -197
-169 2 -169 3 3 170 c4 174 19 292 45 342 43 82 133 112 204 67z"/>
<path d="M19076 2925 c-182 -38 -300 -99 -417 -215 -93 -92 -141 -174 -176
-300 -26 -95 -26 -405 1 -505 72 -268 237 -435 501 -507 110 -30 444 -33 545
-5 192 53 334 178 399 353 37 96 37 104 6 104 -19 0 -28 -6 -33 -22 -16 -61
-90 -187 -139 -236 -154 -154 -446 -176 -566 -43 -84 94 -117 220 -124 479
l-6 192 447 0 446 0 0 90 c0 314 -145 521 -422 601 -96 28 -358 36 -462 14z
m244 -64 c59 -41 80 -153 80 -423 l0 -158 -165 0 -165 0 0 144 c0 166 13 277
42 353 37 100 131 138 208 84z"/>
</g>
</svg>
